<svg xmlns="http://www.w3.org/2000/svg" class="mapPlayerMoves" width="60024" height="84" style="width: 60024px; height: 84px;">
<g transform="scale(0.11 1)">
	<image href="10475_11_1_1.png" x="0" y="0" width="60024" height="84"></image>
	<g class="playerMoves" style="display: inline;">
		<rect x="15.666666666666666" y="39.666666666666664" width="3.6666666666666665" height="3.6666666666666665" fill="#10FF01"></rect>
		<rect x="27.666666666666668" y="39.666666666666664" width="3.6666666666666665" height="3.6666666666666665" fill="#10FF01"></rect>
		<rect x="51.666666666666664" y="39.666666666666664" width="3.6666666666666665" height="3.6666666666666665" fill="#10FF01"></rect>
		<rect x="87.66666666666667" y="39.666666666666664" width="3.6666666666666665" height="3.6666666666666665" fill="#10FF01"></rect>
		<rect x="135.66666666666666" y="39.666666666666664" width="3.6666666666666665" height="3.6666666666666665" fill="#10FF01"></rect>
		<rect x="195.66666666666666" y="39.666666666666664" width="3.6666666666666665" height="3.6666666666666665" fill="#10FF01"></rect>
		<rect x="267.6666666666667" y="39.666666666666664" width="3.6666666666666665" height="3.6666666666666665" fill="#10FF01"></rect>
		<rect x="351.6666666666667" y="39.666666666666664" width="3.6666666666666665" height="3.6666666666666665" fill="#10FF01"></rect>
		<rect x="447.6666666666667" y="51.666666666666664" width="3.6666666666666665" height="3.6666666666666665" fill="#10FF01"></rect>
		<rect x="555.6666666666666" y="51.666666666666664" width="3.6666666666666665" height="3.6666666666666665" fill="#10FF01"></rect>
		<rect x="675.6666666666666" y="51.666666666666664" width="3.6666666666666665" height="3.6666666666666665" fill="#10FF01"></rect>
		<rect x="807.6666666666666" y="51.666666666666664" width="3.6666666666666665" height="3.6666666666666665" fill="#10FF01"></rect>
		<rect x="951.6666666666666" y="51.666666666666664" width="3.6666666666666665" height="3.6666666666666665" fill="#10FF01"></rect>
		<rect x="1107.6666666666667" y="51.666666666666664" width="3.6666666666666665" height="3.6666666666666665" fill="#10FF01"></rect>
		<rect x="1275.6666666666667" y="51.666666666666664" width="3.6666666666666665" height="3.6666666666666665" fill="#10FF01"></rect>
		<rect x="1455.6666666666667" y="51.666666666666664" width="3.6666666666666665" height="3.6666666666666665" fill="#10FF01"></rect>
		<rect x="1647.6666666666667" y="51.666666666666664" width="3.6666666666666665" height="3.6666666666666665" fill="#10FF01"></rect>
		<rect x="1851.6666666666667" y="51.666666666666664" width="3.6666666666666665" height="3.6666666666666665" fill="#10FF01"></rect>
		<rect x="2067.6666666666665" y="63.666666666666664" width="3.6666666666666665" height="3.6666666666666665" fill="#10FF01"></rect>
		<rect x="2295.6666666666665" y="63.666666666666664" width="3.6666666666666665" height="3.6666666666666665" fill="#10FF01"></rect>
		<rect x="2535.6666666666665" y="63.666666666666664" width="3.6666666666666665" height="3.6666666666666665" fill="#10FF01"></rect>
		<rect x="2787.6666666666665" y="51.666666666666664" width="3.6666666666666665" height="3.6666666666666665" fill="#10FF01"></rect>
		<rect x="3051.6666666666665" y="51.666666666666664" width="3.6666666666666665" height="3.6666666666666665" fill="#10FF01"></rect>
		<rect x="3327.6666666666665" y="51.666666666666664" width="3.6666666666666665" height="3.6666666666666665" fill="#10FF01"></rect>
		<rect x="3615.6666666666665" y="51.666666666666664" width="3.6666666666666665" height="3.6666666666666665" fill="#10FF01"></rect>
		<rect x="3915.6666666666665" y="51.666666666666664" width="3.6666666666666665" height="3.6666666666666665" fill="#10FF01"></rect>
		<rect x="4227.666666666667" y="51.666666666666664" width="3.6666666666666665" height="3.6666666666666665" fill="#10FF01"></rect>
		<rect x="4551.666666666667" y="51.666666666666664" width="3.6666666666666665" height="3.6666666666666665" fill="#10FF01"></rect>
		<rect x="4887.666666666667" y="51.666666666666664" width="3.6666666666666665" height="3.6666666666666665" fill="#10FF01"></rect>
		<rect x="5235.666666666667" y="51.666666666666664" width="3.6666666666666665" height="3.6666666666666665" fill="#10FF01"></rect>
		<rect x="5595.666666666667" y="51.666666666666664" width="3.6666666666666665" height="3.6666666666666665" fill="#10FF01"></rect>
		<rect x="5967.666666666667" y="51.666666666666664" width="3.6666666666666665" height="3.6666666666666665" fill="#10FF01"></rect>
		<rect x="6351.666666666667" y="51.666666666666664" width="3.6666666666666665" height="3.6666666666666665" fill="#10FF01"></rect>
		<rect x="6747.666666666667" y="51.666666666666664" width="3.6666666666666665" height="3.6666666666666665" fill="#10FF01"></rect>
		<rect x="7155.666666666667" y="51.666666666666664" width="3.6666666666666665" height="3.6666666666666665" fill="#10FF01"></rect>
		<rect x="7575.666666666667" y="51.666666666666664" width="3.6666666666666665" height="3.6666666666666665" fill="#10FF01"></rect>
		<rect x="8007.666666666667" y="51.666666666666664" width="3.6666666666666665" height="3.6666666666666665" fill="#10FF01"></rect>
		<rect x="8451.666666666666" y="63.666666666666664" width="3.6666666666666665" height="3.6666666666666665" fill="#10FF01"></rect>
		<rect x="8907.666666666666" y="63.666666666666664" width="3.6666666666666665" height="3.6666666666666665" fill="#10FF01"></rect>
		<rect x="9375.666666666666" y="63.666666666666664" width="3.6666666666666665" height="3.6666666666666665" fill="#10FF01"></rect>
		<rect x="9855.666666666666" y="63.666666666666664" width="3.6666666666666665" height="3.6666666666666665" fill="#10FF01"></rect>
		<rect x="10347.666666666666" y="63.666666666666664" width="3.6666666666666665" height="3.6666666666666665" fill="#10FF01"></rect>
		<rect x="10851.666666666666" y="63.666666666666664" width="3.6666666666666665" height="3.6666666666666665" fill="#10FF01"></rect>
		<rect x="11367.666666666666" y="51.666666666666664" width="3.6666666666666665" height="3.6666666666666665" fill="#10FF01"></rect>
		<rect x="11883.666666666666" y="51.666666666666664" width="3.6666666666666665" height="3.6666666666666665" fill="#10FF01"></rect>
		<rect x="12399.666666666666" y="51.666666666666664" width="3.6666666666666665" height="3.6666666666666665" fill="#10FF01"></rect>
		<rect x="12915.666666666666" y="51.666666666666664" width="3.6666666666666665" height="3.6666666666666665" fill="#10FF01"></rect>
		<rect x="13431.666666666666" y="51.666666666666664" width="3.6666666666666665" height="3.6666666666666665" fill="#10FF01"></rect>
		<rect x="13947.666666666666" y="63.666666666666664" width="3.6666666666666665" height="3.6666666666666665" fill="#10FF01"></rect>
		<rect x="14463.666666666666" y="63.666666666666664" width="3.6666666666666665" height="3.6666666666666665" fill="#10FF01"></rect>
		<rect x="14991.666666666666" y="63.666666666666664" width="3.6666666666666665" height="3.6666666666666665" fill="#10FF01"></rect>
		<rect x="15531.666666666666" y="63.666666666666664" width="3.6666666666666665" height="3.6666666666666665" fill="#10FF01"></rect>
		<rect x="16071.666666666666" y="51.666666666666664" width="3.6666666666666665" height="3.6666666666666665" fill="#10FF01"></rect>
		<rect x="16623.666666666668" y="39.666666666666664" width="3.6666666666666665" height="3.6666666666666665" fill="#10FF01"></rect>
		<rect x="17187.666666666668" y="27.666666666666668" width="3.6666666666666665" height="3.6666666666666665" fill="#10FF01"></rect>
		<rect x="17763.666666666668" y="15.666666666666666" width="3.6666666666666665" height="3.6666666666666665" fill="#10FF01"></rect>
		<rect x="18351.666666666668" y="15.666666666666666" width="3.6666666666666665" height="3.6666666666666665" fill="#10FF01"></rect>
		<rect x="18951.666666666668" y="15.666666666666666" width="3.6666666666666665" height="3.6666666666666665" fill="#10FF01"></rect>
		<rect x="19563.666666666668" y="15.666666666666666" width="3.6666666666666665" height="3.6666666666666665" fill="#10FF01"></rect>
		<rect x="20175.666666666668" y="15.666666666666666" width="3.6666666666666665" height="3.6666666666666665" fill="#10FF01"></rect>
		<rect x="20787.666666666668" y="15.666666666666666" width="3.6666666666666665" height="3.6666666666666665" fill="#10FF01"></rect>
		<rect x="21399.666666666668" y="27.666666666666668" width="3.6666666666666665" height="3.6666666666666665" fill="#10FF01"></rect>
		<rect x="22011.666666666668" y="27.666666666666668" width="3.6666666666666665" height="3.6666666666666665" fill="#10FF01"></rect>
		<rect x="22623.666666666668" y="15.666666666666666" width="3.6666666666666665" height="3.6666666666666665" fill="#10FF01"></rect>
		<rect x="23235.666666666668" y="15.666666666666666" width="3.6666666666666665" height="3.6666666666666665" fill="#10FF01"></rect>
		<rect x="23847.666666666668" y="15.666666666666666" width="3.6666666666666665" height="3.6666666666666665" fill="#10FF01"></rect>
		<rect x="24459.666666666668" y="15.666666666666666" width="3.6666666666666665" height="3.6666666666666665" fill="#10FF01"></rect>
		<rect x="25071.666666666668" y="27.666666666666668" width="3.6666666666666665" height="3.6666666666666665" fill="#10FF01"></rect>
		<rect x="25695.666666666668" y="27.666666666666668" width="3.6666666666666665" height="3.6666666666666665" fill="#10FF01"></rect>
		<rect x="26331.666666666668" y="27.666666666666668" width="3.6666666666666665" height="3.6666666666666665" fill="#10FF01"></rect>
		<rect x="26979.666666666668" y="15.666666666666666" width="3.6666666666666665" height="3.6666666666666665" fill="#10FF01"></rect>
		<rect x="27639.666666666668" y="15.666666666666666" width="3.6666666666666665" height="3.6666666666666665" fill="#10FF01"></rect>
		<rect x="28311.666666666668" y="15.666666666666666" width="3.6666666666666665" height="3.6666666666666665" fill="#10FF01"></rect>
		<rect x="28995.666666666668" y="15.666666666666666" width="3.6666666666666665" height="3.6666666666666665" fill="#10FF01"></rect>
		<rect x="29691.666666666668" y="15.666666666666666" width="3.6666666666666665" height="3.6666666666666665" fill="#10FF01"></rect>
		<rect x="30399.666666666668" y="27.666666666666668" width="3.6666666666666665" height="3.6666666666666665" fill="#10FF01"></rect>
		<rect x="31119.666666666668" y="27.666666666666668" width="3.6666666666666665" height="3.6666666666666665" fill="#10FF01"></rect>
		<rect x="31851.666666666668" y="39.666666666666664" width="3.6666666666666665" height="3.6666666666666665" fill="#10FF01"></rect>
		<rect x="32583.666666666668" y="39.666666666666664" width="3.6666666666666665" height="3.6666666666666665" fill="#10FF01"></rect>
		<rect x="33327.666666666664" y="51.666666666666664" width="3.6666666666666665" height="3.6666666666666665" fill="#10FF01"></rect>
		<rect x="34083.666666666664" y="51.666666666666664" width="3.6666666666666665" height="3.6666666666666665" fill="#10FF01"></rect>
		<rect x="34851.666666666664" y="51.666666666666664" width="3.6666666666666665" height="3.6666666666666665" fill="#10FF01"></rect>
		<rect x="35631.666666666664" y="39.666666666666664" width="3.6666666666666665" height="3.6666666666666665" fill="#10FF01"></rect>
		<rect x="36423.666666666664" y="39.666666666666664" width="3.6666666666666665" height="3.6666666666666665" fill="#10FF01"></rect>
		<rect x="37215.666666666664" y="39.666666666666664" width="3.6666666666666665" height="3.6666666666666665" fill="#10FF01"></rect>
		<rect x="38019.666666666664" y="27.666666666666668" width="3.6666666666666665" height="3.6666666666666665" fill="#10FF01"></rect>
		<rect x="38835.666666666664" y="27.666666666666668" width="3.6666666666666665" height="3.6666666666666665" fill="#10FF01"></rect>
		<rect x="39663.666666666664" y="39.666666666666664" width="3.6666666666666665" height="3.6666666666666665" fill="#10FF01"></rect>
		<rect x="40503.666666666664" y="39.666666666666664" width="3.6666666666666665" height="3.6666666666666665" fill="#10FF01"></rect>
		<rect x="41355.666666666664" y="27.666666666666668" width="3.6666666666666665" height="3.6666666666666665" fill="#10FF01"></rect>
		<rect x="42219.666666666664" y="27.666666666666668" width="3.6666666666666665" height="3.6666666666666665" fill="#10FF01"></rect>
		<rect x="43095.666666666664" y="27.666666666666668" width="3.6666666666666665" height="3.6666666666666665" fill="#10FF01"></rect>
		<rect x="43983.666666666664" y="15.666666666666666" width="3.6666666666666665" height="3.6666666666666665" fill="#10FF01"></rect>
		<rect x="44883.666666666664" y="15.666666666666666" width="3.6666666666666665" height="3.6666666666666665" fill="#10FF01"></rect>
		<rect x="45795.666666666664" y="15.666666666666666" width="3.6666666666666665" height="3.6666666666666665" fill="#10FF01"></rect>
		<rect x="46719.666666666664" y="15.666666666666666" width="3.6666666666666665" height="3.6666666666666665" fill="#10FF01"></rect>
		<rect x="47655.666666666664" y="15.666666666666666" width="3.6666666666666665" height="3.6666666666666665" fill="#10FF01"></rect>
		<rect x="48603.666666666664" y="15.666666666666666" width="3.6666666666666665" height="3.6666666666666665" fill="#10FF01"></rect>
		<rect x="49563.666666666664" y="15.666666666666666" width="3.6666666666666665" height="3.6666666666666665" fill="#10FF01"></rect>
		<rect x="50535.666666666664" y="27.666666666666668" width="3.6666666666666665" height="3.6666666666666665" fill="#10FF01"></rect>
		<rect x="51507.666666666664" y="39.666666666666664" width="3.6666666666666665" height="3.6666666666666665" fill="#10FF01"></rect>
		<rect x="52479.666666666664" y="39.666666666666664" width="3.6666666666666665" height="3.6666666666666665" fill="#10FF01"></rect>
		<rect x="53451.666666666664" y="39.666666666666664" width="3.6666666666666665" height="3.6666666666666665" fill="#10FF01"></rect>
		<rect x="54423.666666666664" y="39.666666666666664" width="3.6666666666666665" height="3.6666666666666665" fill="#10FF01"></rect>
		<rect x="55407.666666666664" y="39.666666666666664" width="3.6666666666666665" height="3.6666666666666665" fill="#10FF01"></rect>
		<rect x="56391.666666666664" y="39.666666666666664" width="3.6666666666666665" height="3.6666666666666665" fill="#10FF01"></rect>
		<rect x="57387.666666666664" y="51.666666666666664" width="3.6666666666666665" height="3.6666666666666665" fill="#10FF01"></rect>
		<rect x="58395.666666666664" y="51.666666666666664" width="3.6666666666666665" height="3.6666666666666665" fill="#10FF01"></rect>
		<rect x="59415.666666666664" y="39.666666666666664" width="3.6666666666666665" height="3.6666666666666665" fill="#10FF01"></rect>
		<path d="M17.5,41.5L17.5,41.5L29.5,41.5L53.5,41.5L89.5,41.5L137.5,41.5L197.5,41.5L269.5,41.5L353.5,41.5L449.5,53.5L557.5,53.5L677.5,53.5L809.5,53.5L953.5,53.5L1109.5,53.5L1277.5,53.5L1457.5,53.5L1649.5,53.5L1853.5,53.5L2069.5,65.5L2297.5,65.5L2537.5,65.5L2789.5,53.5L3053.5,53.5L3329.5,53.5L3617.5,53.5L3917.5,53.5L4229.5,53.5L4553.5,53.5L4889.5,53.5L5237.5,53.5L5597.5,53.5L5969.5,53.5L6353.5,53.5L6749.5,53.5L7157.5,53.5L7577.5,53.5L8009.5,53.5L8453.5,65.5L8909.5,65.5L9377.5,65.5L9857.5,65.5L10349.5,65.5L10853.5,65.5L11369.5,53.5L11885.5,53.5L12401.5,53.5L12917.5,53.5L13433.5,53.5L13949.5,65.5L14465.5,65.5L14993.5,65.5L15533.5,65.5L16073.5,53.5L16625.5,41.5L17189.5,29.5L17765.5,17.5L18353.5,17.5L18953.5,17.5L19565.5,17.5L20177.5,17.5L20789.5,17.5L21401.5,29.5L22013.5,29.5L22625.5,17.5L23237.5,17.5L23849.5,17.5L24461.5,17.5L25073.5,29.5L25697.5,29.5L26333.5,29.5L26981.5,17.5L27641.5,17.5L28313.5,17.5L28997.5,17.5L29693.5,17.5L30401.5,29.5L31121.5,29.5L31853.5,41.5L32585.5,41.5L33329.5,53.5L34085.5,53.5L34853.5,53.5L35633.5,41.5L36425.5,41.5L37217.5,41.5L38021.5,29.5L38837.5,29.5L39665.5,41.5L40505.5,41.5L41357.5,29.5L42221.5,29.5L43097.5,29.5L43985.5,17.5L44885.5,17.5L45797.5,17.5L46721.5,17.5L47657.5,17.5L48605.5,17.5L49565.5,17.5L50537.5,29.5L51509.5,41.5L52481.5,41.5L53453.5,41.5L54425.5,41.5L55409.5,41.5L56393.5,41.5L57389.5,53.5L58397.5,53.5L59417.5,41.5" stroke="#10FF01" stroke-width="5" fill="none"></path>
		<circle cx="59417.5" cy="41.5" r="4.5" fill="#10FF01" class="playerPosition" data-playerId="1411"></circle>
	</g>
</g>
</svg>